<svg width="24" height="22" viewBox="0 0 24 22" fill="none" xmlns="http://www.w3.org/2000/svg">
<rect width="24" height="22" fill="white"/>
<path d="M11.3333 8.33333C11.0707 8.33333 10.8106 8.38506 10.568 8.48557C10.3253 8.58608 10.1048 8.7334 9.91912 8.91912C9.7334 9.10484 9.58608 9.32532 9.48557 9.56797C9.38506 9.81062 9.33333 10.0707 9.33333 10.3333M17.3333 16.3333L15.3333 14.3333M15.3333 10.3333C15.3333 12.5425 13.5425 14.3333 11.3333 14.3333C9.12419 14.3333 7.33333 12.5425 7.33333 10.3333C7.33333 8.12419 9.12419 6.33333 11.3333 6.33333C13.5425 6.33333 15.3333 8.12419 15.3333 10.3333Z" stroke="#828282" stroke-linecap="round"/>
</svg>
