<svg width="48" height="47" viewBox="0 0 48 47" fill="none" xmlns="http://www.w3.org/2000/svg">
<rect width="48" height="47" fill="white"/>
<g clip-path="url(#clip0_29_1004)">
<path d="M9.21742 34.3756C10.5738 34.3756 11.6733 33.2761 11.6733 31.9198C11.6733 30.5634 10.5738 29.4639 9.21742 29.4639C7.86109 29.4639 6.76155 30.5634 6.76155 31.9198C6.76155 33.2761 7.86109 34.3756 9.21742 34.3756Z" fill="#424242"/>
<path d="M2 42.7945C2 38.8104 5.23111 35.5793 9.2154 35.5793C13.1997 35.5793 16.4308 38.8104 16.4308 42.7945H2Z" fill="#424242"/>
<path d="M23.5581 34.3756C24.9145 34.3756 26.014 33.2761 26.014 31.9198C26.014 30.5634 24.9145 29.4639 23.5581 29.4639C22.2018 29.4639 21.1022 30.5634 21.1022 31.9198C21.1022 33.2761 22.2018 34.3756 23.5581 34.3756Z" fill="#424242"/>
<path d="M16.3407 42.7945C16.3407 38.8104 19.5718 35.5793 23.5561 35.5793C27.5404 35.5793 30.7715 38.8104 30.7715 42.7945H16.3407Z" fill="#424242"/>
<path d="M37.7845 34.3756C39.1411 34.3756 40.2404 33.2761 40.2404 31.9198C40.2404 30.5634 39.1411 29.4639 37.7845 29.4639C36.4283 29.4639 35.3288 30.5634 35.3288 31.9198C35.3288 33.2761 36.4283 34.3756 37.7845 34.3756Z" fill="#424242"/>
<path d="M30.5692 42.7945C30.5692 38.8104 33.8003 35.5793 37.7845 35.5793C41.769 35.5793 45 38.8104 45 42.7945H30.5692Z" fill="#424242"/>
<path d="M36.8311 14L34.3936 16.831L35.0918 20.5021L31.5604 21.7293L30.3332 25.2607L26.6621 24.5625L23.8311 27L21 24.5625L17.3311 25.2607L16.1017 21.7293L12.5724 20.5021L13.2707 16.831L10.8311 14L13.2707 11.1689L12.5724 7.49999L16.1017 6.27068L17.3311 2.74137L21 3.43962L23.8311 1L26.6621 3.43962L30.3332 2.74137L31.5604 6.27068L35.0918 7.49999L34.3936 11.1689L36.8311 14Z" fill="url(#paint0_linear_29_1004)"/>
<path d="M22.2996 19L17.8311 14.4281L19.1642 13.0712L22.3225 16.286L28.4979 10L29.8311 11.357L22.2996 19Z" fill="white"/>
</g>
<defs>
<linearGradient id="paint0_linear_29_1004" x1="10.8321" y1="14.0007" x2="36.8313" y2="14.0007" gradientUnits="userSpaceOnUse">
<stop offset="0.0807" stop-color="#4FC3F7"/>
<stop offset="1" stop-color="#1CE9B6"/>
</linearGradient>
<clipPath id="clip0_29_1004">
<rect width="43" height="46" fill="white" transform="translate(2 1)"/>
</clipPath>
</defs>
</svg>
