<svg width="46" height="50" viewBox="0 0 46 50" fill="none" xmlns="http://www.w3.org/2000/svg">
<rect width="46" height="50" fill="white"/>
<g clip-path="url(#clip0_29_1003)">
<path d="M22.6859 43.7117C32.2569 43.7117 40.0156 35.8455 40.0156 26.1422C40.0156 16.4389 32.2569 8.57278 22.6859 8.57278C13.1149 8.57278 5.35607 16.4389 5.35607 26.1422C5.35607 35.8455 13.1149 43.7117 22.6859 43.7117Z" fill="#424242"/>
<path d="M38.988 15.3314L8.45127 46.2903" stroke="white" stroke-width="5" stroke-miterlimit="10"/>
<path d="M24.8798 3V10.1396C24.8798 11.8528 23.5101 13.2395 21.8222 13.2395H14.1238C12.4339 13.2395 11.0662 14.6281 11.0662 16.3394V28.3141C11.0662 30.0274 12.4359 31.414 14.1238 31.414H37.1141C40.3141 31.414 42.9094 28.783 42.9094 25.5389" stroke="white" stroke-width="5" stroke-miterlimit="10"/>
<path d="M41.7492 12.2178C41.7492 15.2936 36.2545 23.3589 36.2545 23.3589C36.2545 23.3589 30.7599 15.2936 30.7599 12.2178C30.7599 9.14191 33.2206 6.64714 36.2545 6.64714C39.2883 6.64714 41.7492 9.13988 41.7492 12.2178Z" fill="url(#paint0_linear_29_1003)"/>
<path d="M36.2545 14.1133C37.6255 14.1133 38.737 12.9865 38.737 11.5965C38.737 10.2065 37.6255 9.07974 36.2545 9.07974C34.8834 9.07974 33.772 10.2065 33.772 11.5965C33.772 12.9865 34.8834 14.1133 36.2545 14.1133Z" fill="white"/>
<path d="M28.1806 28.2621C28.1806 31.3379 22.6859 39.4033 22.6859 39.4033C22.6859 39.4033 17.1913 31.3379 17.1913 28.2621C17.1913 25.1862 19.652 22.6915 22.6859 22.6915C25.7198 22.6915 28.1806 25.1842 28.1806 28.2621V28.2621Z" fill="url(#paint1_linear_29_1003)"/>
<path d="M22.6859 30.158C24.0569 30.158 25.1684 29.0312 25.1684 27.6412C25.1684 26.2512 24.0569 25.1244 22.6859 25.1244C21.3149 25.1244 20.2035 26.2512 20.2035 27.6412C20.2035 29.0312 21.3149 30.158 22.6859 30.158V30.158Z" fill="white"/>
<path d="M12.9893 15.2252C12.9893 18.301 7.49461 26.3664 7.49461 26.3664C7.49461 26.3664 2 18.301 2 15.2252C2 12.1493 4.46072 9.6546 7.49461 9.6546C10.5285 9.6546 12.9893 12.1473 12.9893 15.2252Z" fill="url(#paint2_linear_29_1003)"/>
<path d="M7.49461 17.1211C8.86567 17.1211 9.97709 15.9943 9.97709 14.6043C9.97709 13.2143 8.86567 12.0876 7.49461 12.0876C6.12359 12.0876 5.01216 13.2143 5.01216 14.6043C5.01216 15.9943 6.12359 17.1211 7.49461 17.1211V17.1211Z" fill="white"/>
</g>
<defs>
<linearGradient id="paint0_linear_29_1003" x1="30.76" y1="15.0026" x2="41.7492" y2="15.0026" gradientUnits="userSpaceOnUse">
<stop offset="0.0807" stop-color="#4FC3F7"/>
<stop offset="1" stop-color="#1CE9B6"/>
</linearGradient>
<linearGradient id="paint1_linear_29_1003" x1="17.192" y1="31.0463" x2="28.1812" y2="31.0463" gradientUnits="userSpaceOnUse">
<stop offset="0.0807" stop-color="#4FC3F7"/>
<stop offset="1" stop-color="#1CE9B6"/>
</linearGradient>
<linearGradient id="paint2_linear_29_1003" x1="2.00016" y1="18.0101" x2="12.9893" y2="18.0101" gradientUnits="userSpaceOnUse">
<stop offset="0.0807" stop-color="#4FC3F7"/>
<stop offset="1" stop-color="#1CE9B6"/>
</linearGradient>
<clipPath id="clip0_29_1003">
<rect width="42" height="44" fill="white" transform="translate(2 3)"/>
</clipPath>
</defs>
</svg>
