<svg width="24" height="22" viewBox="0 0 24 22" fill="none" xmlns="http://www.w3.org/2000/svg">
<g clip-path="url(#clip0_29_951)">
<rect width="24" height="22" fill="white"/>
<path fill-rule="evenodd" clip-rule="evenodd" d="M15.2403 6.91667H18.4167C18.6928 6.91667 18.9167 6.69281 18.9167 6.41667C18.9167 6.14052 18.6928 5.91667 18.4167 5.91667L14.8657 5.91667C14.9226 6.27946 15.0527 6.61798 15.2403 6.91667ZM13.0522 6.91667C12.9505 6.59691 12.8823 6.2622 12.8517 5.91667L5.58333 5.91667C5.30719 5.91667 5.08333 6.14052 5.08333 6.41667C5.08333 6.69281 5.30719 6.91667 5.58333 6.91667H13.0522ZM5.58333 10.5C5.30719 10.5 5.08333 10.7239 5.08333 11C5.08333 11.2761 5.30719 11.5 5.58333 11.5H18.4167C18.6928 11.5 18.9167 11.2761 18.9167 11C18.9167 10.7239 18.6928 10.5 18.4167 10.5H5.58333ZM5.58333 15.0833C5.30719 15.0833 5.08333 15.3072 5.08333 15.5833C5.08333 15.8595 5.30719 16.0833 5.58333 16.0833H18.4167C18.6928 16.0833 18.9167 15.8595 18.9167 15.5833C18.9167 15.3072 18.6928 15.0833 18.4167 15.0833H5.58333Z" fill="#7D7D7D"/>
<circle cx="17.0417" cy="5.95833" r="2.29167" fill="#7D7D7D"/>
<rect x="-18.5" y="-19.5" width="61" height="103" rx="4.5" stroke="#9747FF" stroke-dasharray="10 5"/>
</g>
<defs>
<clipPath id="clip0_29_951">
<rect width="24" height="22" fill="white"/>
</clipPath>
</defs>
</svg>
