<svg width="49" height="42" viewBox="0 0 49 42" fill="none" xmlns="http://www.w3.org/2000/svg">
<rect width="49" height="42" fill="white"/>
<g clip-path="url(#clip0_29_1001)">
<path d="M23.0723 35.698C21.7934 36.1901 20.357 35.5373 19.8648 34.2404L16.7591 26.2288L21.3918 24.4482L24.4974 32.4599C24.9896 33.7567 24.3512 35.2059 23.0723 35.698Z" fill="#424242"/>
<path d="M41.2593 17.6194C41.0082 17.5983 40.7908 17.4089 40.7414 17.1455C40.6842 16.8306 40.8886 16.5298 41.1994 16.4733L44.9787 15.7765C45.2891 15.7183 45.5874 15.9282 45.6448 16.243C45.7023 16.5578 45.4979 16.8586 45.1871 16.9152L41.4078 17.612C41.3573 17.6214 41.3074 17.624 41.2593 17.6194Z" fill="url(#paint0_linear_29_1001)"/>
<path d="M38.7835 11.1358C38.6307 11.1201 38.4848 11.0418 38.386 10.9086C38.1948 10.653 38.2448 10.2908 38.4965 10.0987L42.0186 7.41163C42.2703 7.21954 42.6284 7.27171 42.8193 7.52739C43.0101 7.78306 42.9605 8.14521 42.7087 8.33731L39.1867 11.0244C39.0652 11.1136 38.9226 11.1506 38.7835 11.1358V11.1358Z" fill="url(#paint1_linear_29_1001)"/>
<path d="M45.8403 25.8723C45.7646 25.8814 45.6859 25.874 45.6072 25.8495L41.5299 24.5619C41.2278 24.4668 41.0592 24.1422 41.1515 23.8368C41.2442 23.5314 41.5621 23.361 41.8663 23.4574L45.9436 24.745C46.2457 24.8401 46.4143 25.1647 46.322 25.4701C46.2531 25.696 46.058 25.8485 45.8403 25.8723V25.8723Z" fill="url(#paint2_linear_29_1001)"/>
<path d="M14.2807 16.61L12.579 16.9291C9.66166 17.4762 7.74613 20.3154 8.30036 23.2711C8.8546 26.2267 11.6686 28.179 14.586 27.632L16.2849 27.2981L16.2877 27.3129C16.2877 27.3129 23.8957 25.7158 35.3505 30.7267L30.8116 6.52176C21.9504 15.3423 14.2807 16.61 14.2807 16.61Z" fill="url(#paint3_linear_29_1001)"/>
<path d="M36.0315 30.7693C38.1409 30.3737 38.821 24.5609 37.5506 17.7859C36.2802 11.011 33.5403 5.83946 31.4309 6.23501C29.3215 6.63056 28.6413 12.4434 29.9118 19.2184C31.1822 25.9933 33.9221 31.1648 36.0315 30.7693Z" fill="#424242"/>
<path d="M33.1778 18.6912C32.7844 16.5935 31.2335 15.0162 29.3241 14.4964C29.4086 15.9703 29.6017 17.5653 29.9117 19.2185C30.2332 20.9326 30.6494 22.542 31.1239 23.987C32.7046 22.8077 33.5696 20.7808 33.1778 18.6912V18.6912Z" fill="white"/>
<path d="M14.5895 16.3816L16.6554 27.399" stroke="white" stroke-width="4.38462" stroke-miterlimit="10"/>
</g>
<defs>
<linearGradient id="paint0_linear_29_1001" x1="40.743" y1="17.1541" x2="45.644" y2="16.2351" gradientUnits="userSpaceOnUse">
<stop offset="0.0807" stop-color="#4FC3F7"/>
<stop offset="1" stop-color="#1CE9B6"/>
</linearGradient>
<linearGradient id="paint1_linear_29_1001" x1="38.0944" y1="9.68645" x2="43.1074" y2="8.74642" gradientUnits="userSpaceOnUse">
<stop offset="0.0807" stop-color="#4FC3F7"/>
<stop offset="1" stop-color="#1CE9B6"/>
</linearGradient>
<linearGradient id="paint2_linear_29_1001" x1="41.322" y1="25.1058" x2="46.1498" y2="24.2005" gradientUnits="userSpaceOnUse">
<stop offset="0.0807" stop-color="#4FC3F7"/>
<stop offset="1" stop-color="#1CE9B6"/>
</linearGradient>
<linearGradient id="paint3_linear_29_1001" x1="8.30109" y1="23.2708" x2="33.0813" y2="18.6241" gradientUnits="userSpaceOnUse">
<stop offset="0.0807" stop-color="#4FC3F7"/>
<stop offset="1" stop-color="#1CE9B6"/>
</linearGradient>
<clipPath id="clip0_29_1001">
<rect width="38" height="27.7692" fill="white" transform="translate(6 11.0036) rotate(-10.6206)"/>
</clipPath>
</defs>
</svg>
