<svg width="45" height="42" viewBox="0 0 45 42" fill="none" xmlns="http://www.w3.org/2000/svg">
<rect width="45" height="42" fill="white"/>
<g clip-path="url(#clip0_29_1002)">
<path d="M8.4994 11.1487L2.0415 34.4268C1.83993 35.1375 2.39812 35.8351 3.16368 35.8351H14.998L8.4994 11.1487Z" fill="#424242"/>
<path d="M33.5073 35.8351H9.95882C9.10214 35.8351 8.40829 35.1692 8.40829 34.3469V11.651C8.40829 10.8287 9.10214 10.1627 9.95882 10.1627H38.4495C39.306 10.1627 40 10.8287 40 11.651V28.578L33.5073 35.8351Z" fill="url(#paint0_linear_29_1002)"/>
<path d="M40 16.4878H8.40829V11.651C8.40829 10.8287 9.10214 10.1627 9.95882 10.1627H38.4495C39.306 10.1627 40 10.8287 40 11.651V16.4878Z" fill="url(#paint1_linear_29_1002)"/>
<path d="M24.5472 19.2112L26.5861 23.1755C26.6423 23.2853 26.7509 23.3616 26.8788 23.3783L31.4354 24.0146C31.7532 24.0592 31.8811 24.4331 31.6505 24.6489L28.3518 27.7352C28.2607 27.8208 28.218 27.9436 28.2393 28.0645L29.0185 32.4213C29.0728 32.7246 28.7413 32.9571 28.4564 32.8139L24.3805 30.7563C24.2681 30.6987 24.1324 30.6987 24.02 30.7563L19.9441 32.8139C19.6592 32.9571 19.3278 32.7264 19.382 32.4213L20.1612 28.0645C20.1825 27.9436 20.1418 27.8208 20.0488 27.7352L16.75 24.6489C16.5194 24.4331 16.6473 24.0592 16.9652 24.0146L21.5218 23.3783C21.6477 23.3616 21.7563 23.2853 21.8144 23.1755L23.8533 19.2112C23.9948 18.934 24.4057 18.934 24.5472 19.2112V19.2112Z" fill="white"/>
<path d="M40 28.5443H35.4531C34.4221 28.5443 33.5867 29.3461 33.5867 30.3358V35.7996L40 28.5443Z" fill="#424242"/>
<path d="M8.40829 16.4878H40" stroke="white" stroke-width="6" stroke-miterlimit="10"/>
<path d="M15.4825 13.6973C14.7886 13.6973 14.2227 13.1541 14.2227 12.4881V8.20938C14.2227 7.54339 14.7886 7.00017 15.4825 7.00017C16.1764 7.00017 16.7423 7.54339 16.7423 8.20938V12.4881C16.7423 13.156 16.1783 13.6973 15.4825 13.6973Z" fill="#424242"/>
<path d="M32.9258 13.6973C32.2319 13.6973 31.666 13.1541 31.666 12.4881V8.20938C31.666 7.54339 32.2319 7.00017 32.9258 7.00017C33.6197 7.00017 34.1857 7.54339 34.1857 8.20938V12.4881C34.1857 13.156 33.6216 13.6973 32.9258 13.6973Z" fill="#424242"/>
</g>
<defs>
<linearGradient id="paint0_linear_29_1002" x1="8.40889" y1="22.9995" x2="40.0006" y2="22.9995" gradientUnits="userSpaceOnUse">
<stop offset="0.0807" stop-color="#4FC3F7"/>
<stop offset="1" stop-color="#1CE9B6"/>
</linearGradient>
<linearGradient id="paint1_linear_29_1002" x1="8.40889" y1="13.3259" x2="40.0006" y2="13.3259" gradientUnits="userSpaceOnUse">
<stop offset="0.0807" stop-color="#4FC3F7"/>
<stop offset="1" stop-color="#1CE9B6"/>
</linearGradient>
<clipPath id="clip0_29_1002">
<rect width="38" height="29" fill="white" transform="translate(2 7.00017)"/>
</clipPath>
</defs>
</svg>
